<svg xmlns="http://www.w3.org/2000/svg" viewBox="0 0 64 64" role="img" aria-label="AG favicon">
  <rect width="64" height="64" rx="16" fill="#0f172a"/>
  <rect x="6" y="6" width="52" height="52" rx="13" fill="none" stroke="#38bdf8" stroke-width="3"/>
  <path d="M15 45 26.2 19h4.2L41.5 45h-6l-2-5.2H23l-2 5.2h-6Zm10-10.4h6.5L28.2 26 25 34.6Z" fill="#f8fafc"/>
  <path d="M41.5 31.8h8V45h-3.8l-.6-2.6c-1.5 2-3.8 3.1-6.8 3.1-2.4 0-4.5-.6-6.3-1.8l2.3-4.3c1.1.7 2.3 1.1 3.8 1.1 2.7 0 4.5-1.3 5.3-3.9h-1.9v-4.8Z" fill="#38bdf8"/>
</svg>
