<svg xmlns="http://www.w3.org/2000/svg" width="1200" height="630" viewBox="0 0 1200 630" role="img" aria-label="Alex Gomez portfolio preview">
  <defs>
    <linearGradient id="bg" x1="0" y1="0" x2="1" y2="1">
      <stop offset="0" stop-color="#020617"/>
      <stop offset="0.58" stop-color="#0f172a"/>
      <stop offset="1" stop-color="#082f49"/>
    </linearGradient>
    <linearGradient id="accent" x1="0" y1="0" x2="1" y2="1">
      <stop offset="0" stop-color="#06b6d4"/>
      <stop offset="1" stop-color="#22c55e"/>
    </linearGradient>
    <pattern id="grid" width="48" height="48" patternUnits="userSpaceOnUse">
      <path d="M48 0H0v48" fill="none" stroke="#334155" stroke-width="1" opacity="0.35"/>
    </pattern>
  </defs>
  <rect width="1200" height="630" fill="url(#bg)"/>
  <rect width="1200" height="630" fill="url(#grid)" opacity="0.35"/>
  <circle cx="1010" cy="110" r="220" fill="#06b6d4" opacity="0.12"/>
  <circle cx="108" cy="556" r="180" fill="#22c55e" opacity="0.10"/>
  <rect x="72" y="72" width="1056" height="486" rx="34" fill="#0f172a" fill-opacity="0.92" stroke="#334155" stroke-width="2"/>
  <rect x="112" y="112" width="104" height="104" rx="26" fill="url(#accent)"/>
  <text x="164" y="178" text-anchor="middle" font-family="Arial, Helvetica, sans-serif" font-size="40" font-weight="800" fill="#020617">AG</text>
  <text x="244" y="154" font-family="Arial, Helvetica, sans-serif" font-size="28" font-weight="700" fill="#67e8f9">alexgl.dev</text>
  <text x="112" y="306" font-family="Arial, Helvetica, sans-serif" font-size="78" font-weight="800" fill="#f8fafc">Alex Gómez</text>
  <text x="112" y="380" font-family="Arial, Helvetica, sans-serif" font-size="42" font-weight="700" fill="#cbd5e1">Junior Software Developer</text>
  <text x="112" y="456" font-family="Arial, Helvetica, sans-serif" font-size="30" fill="#94a3b8">React - APIs - SQL - Cloudflare - Security - Blockchain</text>
  <rect x="112" y="500" width="236" height="10" rx="5" fill="#06b6d4"/>
  <rect x="372" y="500" width="168" height="10" rx="5" fill="#22c55e"/>
  <rect x="564" y="500" width="128" height="10" rx="5" fill="#8b5cf6"/>
</svg>
